<svg width="631" height="331" viewBox="0 0 631 331" fill="none" xmlns="http://www.w3.org/2000/svg">
<rect x="0.5" y="0.5" width="630" height="330" fill="url(#paint0_linear_50_48)"/>
<path d="M0.5 0.5V330.5" stroke="white" stroke-opacity="0.14"/>
<path d="M15.5 0.5V330.5" stroke="white" stroke-opacity="0.14"/>
<path d="M30.5 0.5V330.5" stroke="white" stroke-opacity="0.14"/>
<path d="M45.5 0.5V330.5" stroke="white" stroke-opacity="0.14"/>
<path d="M60.5 0.5V330.5" stroke="white" stroke-opacity="0.14"/>
<path d="M75.5 0.5V330.5" stroke="white" stroke-opacity="0.14"/>
<path d="M90.5 0.5V330.5" stroke="white" stroke-opacity="0.14"/>
<path d="M105.5 0.5V330.5" stroke="white" stroke-opacity="0.14"/>
<path d="M120.5 0.5V330.5" stroke="white" stroke-opacity="0.14"/>
<path d="M135.5 0.5V330.5" stroke="white" stroke-opacity="0.14"/>
<path d="M150.5 0.5V330.5" stroke="white" stroke-opacity="0.14"/>
<path d="M165.5 0.5V330.5" stroke="white" stroke-opacity="0.14"/>
<path d="M180.5 0.5V330.5" stroke="white" stroke-opacity="0.14"/>
<path d="M195.5 0.5V330.5" stroke="white" stroke-opacity="0.14"/>
<path d="M210.5 0.5V330.5" stroke="white" stroke-opacity="0.14"/>
<path d="M225.5 0.5V330.5" stroke="white" stroke-opacity="0.14"/>
<path d="M240.5 0.5V330.5" stroke="white" stroke-opacity="0.14"/>
<path d="M255.5 0.5V330.5" stroke="white" stroke-opacity="0.14"/>
<path d="M270.5 0.5V330.5" stroke="white" stroke-opacity="0.14"/>
<path d="M285.5 0.5V330.5" stroke="white" stroke-opacity="0.14"/>
<path d="M300.5 0.5V330.5" stroke="white" stroke-opacity="0.14"/>
<path d="M315.5 0.5V330.5" stroke="white" stroke-opacity="0.14"/>
<path d="M330.5 0.5V330.5" stroke="white" stroke-opacity="0.14"/>
<path d="M345.5 0.5V330.5" stroke="white" stroke-opacity="0.14"/>
<path d="M360.5 0.5V330.5" stroke="white" stroke-opacity="0.14"/>
<path d="M375.5 0.5V330.5" stroke="white" stroke-opacity="0.14"/>
<path d="M390.5 0.5V330.5" stroke="white" stroke-opacity="0.14"/>
<path d="M405.5 0.5V330.5" stroke="white" stroke-opacity="0.14"/>
<path d="M420.5 0.5V330.5" stroke="white" stroke-opacity="0.14"/>
<path d="M435.5 0.5V330.5" stroke="white" stroke-opacity="0.14"/>
<path d="M450.5 0.5V330.5" stroke="white" stroke-opacity="0.14"/>
<path d="M465.5 0.5V330.5" stroke="white" stroke-opacity="0.14"/>
<path d="M480.5 0.5V330.5" stroke="white" stroke-opacity="0.14"/>
<path d="M495.5 0.5V330.5" stroke="white" stroke-opacity="0.14"/>
<path d="M510.5 0.5V330.5" stroke="white" stroke-opacity="0.14"/>
<path d="M525.5 0.5V330.5" stroke="white" stroke-opacity="0.14"/>
<path d="M540.5 0.5V330.5" stroke="white" stroke-opacity="0.14"/>
<path d="M555.5 0.5V330.5" stroke="white" stroke-opacity="0.14"/>
<path d="M570.5 0.5V330.5" stroke="white" stroke-opacity="0.14"/>
<path d="M585.5 0.5V330.5" stroke="white" stroke-opacity="0.14"/>
<path d="M600.5 0.5V330.5" stroke="white" stroke-opacity="0.14"/>
<path d="M615.5 0.5V330.5" stroke="white" stroke-opacity="0.14"/>
<path d="M630.5 0.5V330.5" stroke="white" stroke-opacity="0.14"/>
<path d="M0.5 330.5L630.5 330.5" stroke="white" stroke-opacity="0.14"/>
<path d="M0.5 315.5L630.5 315.5" stroke="white" stroke-opacity="0.14"/>
<path d="M0.5 300.5L630.5 300.5" stroke="white" stroke-opacity="0.14"/>
<path d="M0.5 285.5L630.5 285.5" stroke="white" stroke-opacity="0.14"/>
<path d="M0.5 270.5L630.5 270.5" stroke="white" stroke-opacity="0.14"/>
<path d="M0.5 255.5L630.5 255.5" stroke="white" stroke-opacity="0.14"/>
<path d="M0.5 240.5L630.5 240.5" stroke="white" stroke-opacity="0.14"/>
<path d="M0.5 225.5L630.5 225.5" stroke="white" stroke-opacity="0.14"/>
<path d="M0.5 210.5L630.5 210.5" stroke="white" stroke-opacity="0.14"/>
<path d="M0.5 195.5L630.5 195.5" stroke="white" stroke-opacity="0.14"/>
<path d="M0.5 180.5L630.5 180.5" stroke="white" stroke-opacity="0.14"/>
<path d="M0.5 165.5L630.5 165.5" stroke="white" stroke-opacity="0.14"/>
<path d="M0.5 150.5L630.5 150.5" stroke="white" stroke-opacity="0.14"/>
<path d="M0.5 135.5L630.5 135.5" stroke="white" stroke-opacity="0.14"/>
<path d="M0.5 120.5L630.5 120.5" stroke="white" stroke-opacity="0.14"/>
<path d="M0.5 105.5L630.5 105.5" stroke="white" stroke-opacity="0.14"/>
<path d="M0.5 90.5L630.5 90.5" stroke="white" stroke-opacity="0.14"/>
<path d="M0.5 75.5L630.5 75.5" stroke="white" stroke-opacity="0.14"/>
<path d="M0.5 60.5L630.5 60.5" stroke="white" stroke-opacity="0.14"/>
<path d="M0.5 45.5L630.5 45.5" stroke="white" stroke-opacity="0.14"/>
<path d="M0.5 30.5L630.5 30.5" stroke="white" stroke-opacity="0.14"/>
<path d="M0.5 15.5L630.5 15.5" stroke="white" stroke-opacity="0.14"/>
<path d="M0.5 0.5L630.5 0.5" stroke="white" stroke-opacity="0.14"/>
<path d="M230.44 183.5V138.13H247.99C250.2 138.13 252.172 138.477 253.905 139.17C255.638 139.82 257.09 140.773 258.26 142.03C259.473 143.287 260.383 144.803 260.99 146.58C261.597 148.357 261.9 150.35 261.9 152.56C261.9 154.77 261.597 156.763 260.99 158.54C260.383 160.317 259.473 161.833 258.26 163.09C257.09 164.347 255.638 165.322 253.905 166.015C252.172 166.665 250.2 166.99 247.99 166.99H240.255V183.5H230.44ZM240.255 159.125H245.52C247.817 159.125 249.398 158.692 250.265 157.825C251.175 156.958 251.63 155.528 251.63 153.535V151.585C251.63 149.592 251.175 148.162 250.265 147.295C249.398 146.428 247.817 145.995 245.52 145.995H240.255V159.125ZM269.285 176.025H277.02V157.435H269.285V149.96H286.64V159.45H287.095C287.398 158.237 287.81 157.067 288.33 155.94C288.893 154.77 289.586 153.752 290.41 152.885C291.276 151.975 292.316 151.26 293.53 150.74C294.743 150.22 296.173 149.96 297.82 149.96H301.005V158.8H293.855C291.471 158.8 289.673 159.515 288.46 160.945C287.246 162.332 286.64 164.043 286.64 166.08V176.025H297.69V183.5H269.285V176.025ZM322.949 184.28C320.349 184.28 318.009 183.89 315.929 183.11C313.849 182.287 312.073 181.117 310.599 179.6C309.169 178.083 308.064 176.242 307.284 174.075C306.504 171.908 306.114 169.46 306.114 166.73C306.114 164 306.504 161.552 307.284 159.385C308.064 157.218 309.169 155.377 310.599 153.86C312.073 152.343 313.849 151.195 315.929 150.415C318.009 149.592 320.349 149.18 322.949 149.18C325.549 149.18 327.889 149.592 329.969 150.415C332.049 151.195 333.804 152.343 335.234 153.86C336.708 155.377 337.834 157.218 338.614 159.385C339.394 161.552 339.784 164 339.784 166.73C339.784 169.46 339.394 171.908 338.614 174.075C337.834 176.242 336.708 178.083 335.234 179.6C333.804 181.117 332.049 182.287 329.969 183.11C327.889 183.89 325.549 184.28 322.949 184.28ZM322.949 177.13C325.116 177.13 326.806 176.458 328.019 175.115C329.233 173.772 329.839 171.865 329.839 169.395V164.065C329.839 161.595 329.233 159.688 328.019 158.345C326.806 157.002 325.116 156.33 322.949 156.33C320.783 156.33 319.093 157.002 317.879 158.345C316.666 159.688 316.059 161.595 316.059 164.065V169.395C316.059 171.865 316.666 173.772 317.879 175.115C319.093 176.458 320.783 177.13 322.949 177.13ZM364.524 183.5C361.057 183.5 358.479 182.59 356.789 180.77C355.099 178.95 354.254 176.632 354.254 173.815V157.435H345.154V149.96H351.069C352.499 149.96 353.517 149.678 354.124 149.115C354.73 148.552 355.034 147.512 355.034 145.995V138.13H363.874V149.96H376.939V157.435H363.874V176.025H376.939V183.5H364.524ZM400.898 184.28C398.298 184.28 395.958 183.89 393.878 183.11C391.798 182.287 390.022 181.117 388.548 179.6C387.118 178.083 386.013 176.242 385.233 174.075C384.453 171.908 384.063 169.46 384.063 166.73C384.063 164 384.453 161.552 385.233 159.385C386.013 157.218 387.118 155.377 388.548 153.86C390.022 152.343 391.798 151.195 393.878 150.415C395.958 149.592 398.298 149.18 400.898 149.18C403.498 149.18 405.838 149.592 407.918 150.415C409.998 151.195 411.753 152.343 413.183 153.86C414.657 155.377 415.783 157.218 416.563 159.385C417.343 161.552 417.733 164 417.733 166.73C417.733 169.46 417.343 171.908 416.563 174.075C415.783 176.242 414.657 178.083 413.183 179.6C411.753 181.117 409.998 182.287 407.918 183.11C405.838 183.89 403.498 184.28 400.898 184.28ZM400.898 177.13C403.065 177.13 404.755 176.458 405.968 175.115C407.182 173.772 407.788 171.865 407.788 169.395V164.065C407.788 161.595 407.182 159.688 405.968 158.345C404.755 157.002 403.065 156.33 400.898 156.33C398.732 156.33 397.042 157.002 395.828 158.345C394.615 159.688 394.008 161.595 394.008 164.065V169.395C394.008 171.865 394.615 173.772 395.828 175.115C397.042 176.458 398.732 177.13 400.898 177.13ZM441.238 184.28C438.595 184.28 436.211 183.89 434.088 183.11C432.008 182.287 430.231 181.117 428.758 179.6C427.328 178.083 426.223 176.242 425.443 174.075C424.663 171.908 424.273 169.46 424.273 166.73C424.273 164 424.663 161.552 425.443 159.385C426.223 157.218 427.328 155.377 428.758 153.86C430.231 152.343 432.008 151.195 434.088 150.415C436.211 149.592 438.573 149.18 441.173 149.18C444.856 149.18 447.803 149.938 450.013 151.455C452.266 152.928 453.978 154.9 455.148 157.37L447.738 161.4C447.131 160.1 446.33 159.017 445.333 158.15C444.38 157.283 442.993 156.85 441.173 156.85C438.963 156.85 437.251 157.5 436.038 158.8C434.868 160.057 434.283 161.79 434.283 164V169.46C434.283 171.67 434.868 173.425 436.038 174.725C437.251 175.982 439.006 176.61 441.303 176.61C443.166 176.61 444.618 176.177 445.658 175.31C446.741 174.443 447.651 173.317 448.388 171.93L455.668 176.09C454.455 178.56 452.678 180.553 450.338 182.07C448.041 183.543 445.008 184.28 441.238 184.28ZM478.848 184.28C476.248 184.28 473.908 183.89 471.828 183.11C469.748 182.287 467.971 181.117 466.498 179.6C465.068 178.083 463.963 176.242 463.183 174.075C462.403 171.908 462.013 169.46 462.013 166.73C462.013 164 462.403 161.552 463.183 159.385C463.963 157.218 465.068 155.377 466.498 153.86C467.971 152.343 469.748 151.195 471.828 150.415C473.908 149.592 476.248 149.18 478.848 149.18C481.448 149.18 483.788 149.592 485.868 150.415C487.948 151.195 489.703 152.343 491.133 153.86C492.606 155.377 493.733 157.218 494.513 159.385C495.293 161.552 495.683 164 495.683 166.73C495.683 169.46 495.293 171.908 494.513 174.075C493.733 176.242 492.606 178.083 491.133 179.6C489.703 181.117 487.948 182.287 485.868 183.11C483.788 183.89 481.448 184.28 478.848 184.28ZM478.848 177.13C481.014 177.13 482.704 176.458 483.918 175.115C485.131 173.772 485.738 171.865 485.738 169.395V164.065C485.738 161.595 485.131 159.688 483.918 158.345C482.704 157.002 481.014 156.33 478.848 156.33C476.681 156.33 474.991 157.002 473.778 158.345C472.564 159.688 471.958 161.595 471.958 164.065V169.395C471.958 171.865 472.564 173.772 473.778 175.115C474.991 176.458 476.681 177.13 478.848 177.13ZM502.742 176.025H513.012V142.875H502.742V135.4H522.632V176.025H532.902V183.5H502.742V176.025Z" fill="white" fill-opacity="0.68"/>
<path d="M489.546 315.74C488.293 315.74 487.266 315.513 486.466 315.06C485.666 314.593 485.006 314 484.486 313.28L485.706 312.28C486.253 312.96 486.826 313.467 487.426 313.8C488.039 314.133 488.766 314.3 489.606 314.3C490.619 314.3 491.393 314.067 491.926 313.6C492.459 313.133 492.726 312.48 492.726 311.64C492.726 310.96 492.533 310.433 492.146 310.06C491.759 309.673 491.086 309.4 490.126 309.24L488.566 308.98C487.886 308.86 487.313 308.68 486.846 308.44C486.393 308.2 486.026 307.913 485.746 307.58C485.466 307.233 485.266 306.86 485.146 306.46C485.026 306.047 484.966 305.62 484.966 305.18C484.966 303.9 485.386 302.933 486.226 302.28C487.066 301.627 488.199 301.3 489.626 301.3C490.746 301.3 491.686 301.487 492.446 301.86C493.219 302.233 493.839 302.76 494.306 303.44L493.126 304.46C492.739 303.953 492.273 303.54 491.726 303.22C491.179 302.9 490.473 302.74 489.606 302.74C488.659 302.74 487.933 302.94 487.426 303.34C486.919 303.74 486.666 304.34 486.666 305.14C486.666 305.767 486.853 306.28 487.226 306.68C487.613 307.067 488.299 307.347 489.286 307.52L490.786 307.78C491.466 307.9 492.039 308.08 492.506 308.32C492.973 308.56 493.346 308.847 493.626 309.18C493.919 309.513 494.126 309.887 494.246 310.3C494.366 310.713 494.426 311.147 494.426 311.6C494.426 312.893 493.999 313.907 493.146 314.64C492.306 315.373 491.106 315.74 489.546 315.74ZM500.978 307.46C501.951 307.46 502.678 307.247 503.158 306.82C503.651 306.38 503.898 305.82 503.898 305.14V305C503.898 304.253 503.658 303.693 503.178 303.32C502.711 302.947 502.098 302.76 501.338 302.76C500.591 302.76 499.985 302.927 499.518 303.26C499.065 303.58 498.691 304.007 498.398 304.54L497.138 303.58C497.311 303.3 497.525 303.027 497.778 302.76C498.031 302.48 498.325 302.233 498.658 302.02C499.005 301.807 499.398 301.633 499.838 301.5C500.291 301.367 500.805 301.3 501.378 301.3C501.978 301.3 502.538 301.38 503.058 301.54C503.578 301.687 504.031 301.913 504.418 302.22C504.805 302.513 505.105 302.88 505.318 303.32C505.545 303.76 505.658 304.26 505.658 304.82C505.658 305.273 505.585 305.68 505.438 306.04C505.305 306.4 505.111 306.713 504.858 306.98C504.618 307.247 504.331 307.473 503.998 307.66C503.665 307.847 503.311 307.987 502.938 308.08V308.16C503.325 308.24 503.698 308.373 504.058 308.56C504.418 308.733 504.738 308.967 505.018 309.26C505.298 309.54 505.518 309.887 505.678 310.3C505.851 310.7 505.938 311.16 505.938 311.68C505.938 312.28 505.818 312.833 505.578 313.34C505.351 313.833 505.025 314.26 504.598 314.62C504.185 314.967 503.678 315.24 503.078 315.44C502.491 315.64 501.838 315.74 501.118 315.74C500.505 315.74 499.958 315.673 499.478 315.54C499.011 315.407 498.591 315.227 498.218 315C497.858 314.773 497.538 314.52 497.258 314.24C496.991 313.96 496.751 313.667 496.538 313.36L497.798 312.4C497.985 312.68 498.178 312.933 498.378 313.16C498.578 313.387 498.805 313.587 499.058 313.76C499.325 313.92 499.625 314.047 499.958 314.14C500.291 314.233 500.678 314.28 501.118 314.28C502.105 314.28 502.858 314.053 503.378 313.6C503.911 313.147 504.178 312.5 504.178 311.66V311.5C504.178 310.673 503.918 310.033 503.398 309.58C502.891 309.127 502.125 308.9 501.098 308.9H499.438V307.46H500.978ZM521.363 315.5V301.54H526.443C527.736 301.54 528.723 301.893 529.403 302.6C530.083 303.307 530.423 304.293 530.423 305.56C530.423 306.827 530.083 307.813 529.403 308.52C528.723 309.227 527.736 309.58 526.443 309.58H523.043V315.5H521.363ZM523.043 308.12H526.403C527.109 308.12 527.656 307.947 528.043 307.6C528.443 307.24 528.643 306.733 528.643 306.08V305.04C528.643 304.387 528.443 303.887 528.043 303.54C527.656 303.18 527.109 303 526.403 303H523.043V308.12ZM533.095 314.14H536.115V306.54H533.095V305.18H537.715V307.78H537.815C538.028 306.967 538.428 306.333 539.015 305.88C539.615 305.413 540.375 305.18 541.295 305.18H542.735V306.78H540.795C539.875 306.78 539.128 307.047 538.555 307.58C537.995 308.113 537.715 308.813 537.715 309.68V314.14H541.715V315.5H533.095V314.14ZM549.547 315.74C548.827 315.74 548.174 315.613 547.587 315.36C547.014 315.107 546.52 314.747 546.107 314.28C545.707 313.8 545.4 313.233 545.187 312.58C544.974 311.913 544.867 311.167 544.867 310.34C544.867 309.527 544.974 308.787 545.187 308.12C545.4 307.453 545.707 306.887 546.107 306.42C546.52 305.94 547.014 305.573 547.587 305.32C548.174 305.067 548.827 304.94 549.547 304.94C550.267 304.94 550.914 305.067 551.487 305.32C552.074 305.573 552.567 305.94 552.967 306.42C553.38 306.887 553.694 307.453 553.907 308.12C554.12 308.787 554.227 309.527 554.227 310.34C554.227 311.167 554.12 311.913 553.907 312.58C553.694 313.233 553.38 313.8 552.967 314.28C552.567 314.747 552.074 315.107 551.487 315.36C550.914 315.613 550.267 315.74 549.547 315.74ZM549.547 314.36C550.44 314.36 551.16 314.093 551.707 313.56C552.254 313.027 552.527 312.2 552.527 311.08V309.6C552.527 308.48 552.254 307.653 551.707 307.12C551.16 306.587 550.44 306.32 549.547 306.32C548.654 306.32 547.934 306.587 547.387 307.12C546.84 307.653 546.567 308.48 546.567 309.6V311.08C546.567 312.2 546.84 313.027 547.387 313.56C547.934 314.093 548.654 314.36 549.547 314.36ZM562.039 315.5C561.252 315.5 560.672 315.28 560.299 314.84C559.939 314.4 559.759 313.833 559.759 313.14V306.54H556.319V305.18H558.879C559.226 305.18 559.466 305.113 559.599 304.98C559.746 304.833 559.819 304.587 559.819 304.24V301.54H561.359V305.18H566.059V306.54H561.359V314.14H566.059V315.5H562.039ZM573.531 315.74C572.811 315.74 572.158 315.613 571.571 315.36C570.998 315.107 570.505 314.747 570.091 314.28C569.691 313.8 569.385 313.233 569.171 312.58C568.958 311.913 568.851 311.167 568.851 310.34C568.851 309.527 568.958 308.787 569.171 308.12C569.385 307.453 569.691 306.887 570.091 306.42C570.505 305.94 570.998 305.573 571.571 305.32C572.158 305.067 572.811 304.94 573.531 304.94C574.251 304.94 574.898 305.067 575.471 305.32C576.058 305.573 576.551 305.94 576.951 306.42C577.365 306.887 577.678 307.453 577.891 308.12C578.105 308.787 578.211 309.527 578.211 310.34C578.211 311.167 578.105 311.913 577.891 312.58C577.678 313.233 577.365 313.8 576.951 314.28C576.551 314.747 576.058 315.107 575.471 315.36C574.898 315.613 574.251 315.74 573.531 315.74ZM573.531 314.36C574.425 314.36 575.145 314.093 575.691 313.56C576.238 313.027 576.511 312.2 576.511 311.08V309.6C576.511 308.48 576.238 307.653 575.691 307.12C575.145 306.587 574.425 306.32 573.531 306.32C572.638 306.32 571.918 306.587 571.371 307.12C570.825 307.653 570.551 308.48 570.551 309.6V311.08C570.551 312.2 570.825 313.027 571.371 313.56C571.918 314.093 572.638 314.36 573.531 314.36ZM585.883 315.74C585.137 315.74 584.47 315.613 583.883 315.36C583.31 315.093 582.823 314.727 582.423 314.26C582.023 313.793 581.717 313.227 581.503 312.56C581.303 311.893 581.203 311.153 581.203 310.34C581.203 309.527 581.31 308.787 581.523 308.12C581.737 307.453 582.043 306.887 582.443 306.42C582.843 305.94 583.33 305.573 583.903 305.32C584.477 305.067 585.13 304.94 585.863 304.94C586.863 304.94 587.677 305.16 588.303 305.6C588.93 306.04 589.39 306.613 589.683 307.32L588.403 308C588.217 307.467 587.903 307.053 587.463 306.76C587.037 306.467 586.503 306.32 585.863 306.32C585.397 306.32 584.977 306.4 584.603 306.56C584.243 306.707 583.937 306.92 583.683 307.2C583.43 307.48 583.237 307.813 583.103 308.2C582.983 308.587 582.923 309.007 582.923 309.46V311.22C582.923 311.673 582.983 312.093 583.103 312.48C583.237 312.867 583.43 313.2 583.683 313.48C583.937 313.76 584.25 313.98 584.623 314.14C584.997 314.287 585.423 314.36 585.903 314.36C586.597 314.36 587.17 314.2 587.623 313.88C588.077 313.56 588.437 313.12 588.703 312.56L589.843 313.34C589.537 314.033 589.057 314.607 588.403 315.06C587.763 315.513 586.923 315.74 585.883 315.74ZM597.516 315.74C596.796 315.74 596.142 315.613 595.556 315.36C594.982 315.107 594.489 314.747 594.076 314.28C593.676 313.8 593.369 313.233 593.156 312.58C592.942 311.913 592.836 311.167 592.836 310.34C592.836 309.527 592.942 308.787 593.156 308.12C593.369 307.453 593.676 306.887 594.076 306.42C594.489 305.94 594.982 305.573 595.556 305.32C596.142 305.067 596.796 304.94 597.516 304.94C598.236 304.94 598.882 305.067 599.456 305.32C600.042 305.573 600.536 305.94 600.936 306.42C601.349 306.887 601.662 307.453 601.876 308.12C602.089 308.787 602.196 309.527 602.196 310.34C602.196 311.167 602.089 311.913 601.876 312.58C601.662 313.233 601.349 313.8 600.936 314.28C600.536 314.747 600.042 315.107 599.456 315.36C598.882 315.613 598.236 315.74 597.516 315.74ZM597.516 314.36C598.409 314.36 599.129 314.093 599.676 313.56C600.222 313.027 600.496 312.2 600.496 311.08V309.6C600.496 308.48 600.222 307.653 599.676 307.12C599.129 306.587 598.409 306.32 597.516 306.32C596.622 306.32 595.902 306.587 595.356 307.12C594.809 307.653 594.536 308.48 594.536 309.6V311.08C594.536 312.2 594.809 313.027 595.356 313.56C595.902 314.093 596.622 314.36 597.516 314.36ZM605.108 314.14H608.708V302.06H605.108V300.7H610.308V314.14H613.908V315.5H605.108V314.14Z" fill="white" fill-opacity="0.58"/>
<path d="M58.42 103.5C57.9187 103.5 57.5613 103.372 57.348 103.116C57.1347 102.86 57.0013 102.54 56.948 102.156H56.868C56.6867 102.636 56.3933 103.015 55.988 103.292C55.5933 103.559 55.06 103.692 54.388 103.692C53.524 103.692 52.836 103.468 52.324 103.02C51.812 102.572 51.556 101.959 51.556 101.18C51.556 100.412 51.8333 99.82 52.388 99.404C52.9533 98.988 53.86 98.78 55.108 98.78H56.868V97.964C56.868 97.356 56.6973 96.9027 56.356 96.604C56.0147 96.2947 55.5293 96.14 54.9 96.14C54.3453 96.14 53.892 96.252 53.54 96.476C53.188 96.6893 52.9053 96.9827 52.692 97.356L51.828 96.716C51.9347 96.5027 52.0787 96.2947 52.26 96.092C52.4413 95.8893 52.6653 95.7133 52.932 95.564C53.1987 95.404 53.5027 95.2813 53.844 95.196C54.1853 95.1 54.564 95.052 54.98 95.052C55.9507 95.052 56.7187 95.2973 57.284 95.788C57.86 96.2787 58.148 96.9613 58.148 97.836V102.38H59.3V103.5H58.42ZM54.612 102.62C54.9427 102.62 55.2413 102.583 55.508 102.508C55.7853 102.423 56.0253 102.316 56.228 102.188C56.4307 102.049 56.5853 101.889 56.692 101.708C56.8093 101.516 56.868 101.313 56.868 101.1V99.74H55.108C54.34 99.74 53.78 99.8467 53.428 100.06C53.076 100.273 52.9 100.583 52.9 100.988V101.324C52.9 101.751 53.0493 102.076 53.348 102.3C53.6573 102.513 54.0787 102.62 54.612 102.62ZM61.3738 102.412H64.2538V92.748H61.3738V91.66H65.5338V102.412H68.4138V103.5H61.3738V102.412ZM74.8875 103.5C74.2582 103.5 73.7942 103.324 73.4955 102.972C73.2075 102.62 73.0635 102.167 73.0635 101.612V96.332H70.3115V95.244H72.3595C72.6368 95.244 72.8288 95.1907 72.9355 95.084C73.0528 94.9667 73.1115 94.7693 73.1115 94.492V92.332H74.3435V95.244H78.1035V96.332H74.3435V102.412H78.1035V103.5H74.8875ZM84.2253 103.692C83.6279 103.692 83.0893 103.591 82.6093 103.388C82.1399 103.185 81.7346 102.897 81.3932 102.524C81.0626 102.14 80.8066 101.687 80.6253 101.164C80.4439 100.631 80.3533 100.039 80.3533 99.388C80.3533 98.7267 80.4439 98.1293 80.6253 97.596C80.8173 97.0627 81.0786 96.6093 81.4093 96.236C81.7399 95.852 82.1346 95.5587 82.5933 95.356C83.0626 95.1533 83.5799 95.052 84.1453 95.052C84.6999 95.052 85.2013 95.1533 85.6493 95.356C86.1079 95.5587 86.4973 95.8413 86.8173 96.204C87.1373 96.556 87.3826 96.9773 87.5533 97.468C87.7239 97.9587 87.8093 98.4973 87.8093 99.084V99.692H81.6973V100.076C81.6973 100.439 81.7559 100.775 81.8733 101.084C81.9906 101.393 82.1559 101.66 82.3693 101.884C82.5933 102.108 82.8599 102.284 83.1693 102.412C83.4893 102.529 83.8413 102.588 84.2253 102.588C84.7799 102.588 85.2599 102.46 85.6653 102.204C86.0706 101.948 86.3799 101.596 86.5933 101.148L87.5373 101.788C87.2919 102.343 86.8813 102.801 86.3053 103.164C85.7399 103.516 85.0466 103.692 84.2253 103.692ZM84.1453 96.108C83.7933 96.108 83.4679 96.172 83.1693 96.3C82.8706 96.428 82.6093 96.604 82.3853 96.828C82.1719 97.052 82.0013 97.3187 81.8733 97.628C81.7559 97.9267 81.6973 98.2573 81.6973 98.62V98.732H86.4333V98.556C86.4333 98.1933 86.3746 97.8627 86.2573 97.564C86.1506 97.2653 85.9959 97.0093 85.7933 96.796C85.6013 96.572 85.3613 96.4013 85.0733 96.284C84.7959 96.1667 84.4866 96.108 84.1453 96.108ZM90.107 102.412H92.523V96.332H90.107V95.244H93.803V97.324H93.883C94.0537 96.6733 94.3737 96.1667 94.843 95.804C95.323 95.4307 95.931 95.244 96.667 95.244H97.819V96.524H96.267C95.531 96.524 94.9337 96.7373 94.475 97.164C94.027 97.5907 93.803 98.1507 93.803 98.844V102.412H97.003V103.5H90.107V102.412ZM100.037 103.5V95.244H101.317V96.588H101.381C101.466 96.3853 101.573 96.1933 101.701 96.012C101.829 95.82 101.983 95.6547 102.165 95.516C102.357 95.3773 102.581 95.2653 102.837 95.18C103.093 95.0947 103.391 95.052 103.733 95.052C104.597 95.052 105.29 95.3293 105.813 95.884C106.335 96.428 106.597 97.2013 106.597 98.204V103.5H105.317V98.428C105.317 97.6707 105.151 97.1107 104.821 96.748C104.49 96.3747 104.005 96.188 103.365 96.188C103.109 96.188 102.858 96.22 102.613 96.284C102.367 96.348 102.149 96.444 101.957 96.572C101.765 96.7 101.61 96.8653 101.493 97.068C101.375 97.2707 101.317 97.5053 101.317 97.772V103.5H100.037ZM115.983 103.5C115.481 103.5 115.124 103.372 114.911 103.116C114.697 102.86 114.564 102.54 114.511 102.156H114.431C114.249 102.636 113.956 103.015 113.551 103.292C113.156 103.559 112.623 103.692 111.951 103.692C111.087 103.692 110.399 103.468 109.887 103.02C109.375 102.572 109.118 101.959 109.118 101.18C109.118 100.412 109.396 99.82 109.951 99.404C110.516 98.988 111.423 98.78 112.671 98.78H114.431V97.964C114.431 97.356 114.26 96.9027 113.919 96.604C113.577 96.2947 113.092 96.14 112.463 96.14C111.908 96.14 111.455 96.252 111.103 96.476C110.751 96.6893 110.468 96.9827 110.255 97.356L109.391 96.716C109.497 96.5027 109.641 96.2947 109.823 96.092C110.004 95.8893 110.228 95.7133 110.495 95.564C110.761 95.404 111.065 95.2813 111.407 95.196C111.748 95.1 112.127 95.052 112.543 95.052C113.513 95.052 114.281 95.2973 114.847 95.788C115.423 96.2787 115.711 96.9613 115.711 97.836V102.38H116.863V103.5H115.983ZM112.174 102.62C112.505 102.62 112.804 102.583 113.071 102.508C113.348 102.423 113.588 102.316 113.791 102.188C113.993 102.049 114.148 101.889 114.255 101.708C114.372 101.516 114.431 101.313 114.431 101.1V99.74H112.671C111.903 99.74 111.343 99.8467 110.991 100.06C110.639 100.273 110.463 100.583 110.463 100.988V101.324C110.463 101.751 110.612 102.076 110.911 102.3C111.22 102.513 111.641 102.62 112.174 102.62ZM122.856 103.5C122.227 103.5 121.763 103.324 121.464 102.972C121.176 102.62 121.032 102.167 121.032 101.612V96.332H118.28V95.244H120.328C120.606 95.244 120.798 95.1907 120.904 95.084C121.022 94.9667 121.08 94.7693 121.08 94.492V92.332H122.312V95.244H126.072V96.332H122.312V102.412H126.072V103.5H122.856ZM132.562 93.42C132.189 93.42 131.927 93.3453 131.778 93.196C131.629 93.036 131.554 92.8387 131.554 92.604V92.348C131.554 92.1133 131.629 91.9213 131.778 91.772C131.927 91.612 132.189 91.532 132.562 91.532C132.935 91.532 133.197 91.612 133.346 91.772C133.495 91.9213 133.57 92.1133 133.57 92.348V92.604C133.57 92.8387 133.495 93.036 133.346 93.196C133.197 93.3453 132.935 93.42 132.562 93.42ZM128.946 102.412H131.922V96.332H128.946V95.244H133.202V102.412H135.986V103.5H128.946V102.412ZM140.828 103.5L137.868 95.244H139.164L140.348 98.7L141.628 102.428H141.692L142.972 98.7L144.156 95.244H145.42L142.46 103.5H140.828ZM151.382 103.692C150.784 103.692 150.246 103.591 149.766 103.388C149.296 103.185 148.891 102.897 148.549 102.524C148.219 102.14 147.963 101.687 147.782 101.164C147.6 100.631 147.51 100.039 147.51 99.388C147.51 98.7267 147.6 98.1293 147.782 97.596C147.974 97.0627 148.235 96.6093 148.566 96.236C148.896 95.852 149.291 95.5587 149.75 95.356C150.219 95.1533 150.736 95.052 151.302 95.052C151.856 95.052 152.358 95.1533 152.806 95.356C153.264 95.5587 153.654 95.8413 153.974 96.204C154.294 96.556 154.539 96.9773 154.71 97.468C154.88 97.9587 154.966 98.4973 154.966 99.084V99.692H148.854V100.076C148.854 100.439 148.912 100.775 149.03 101.084C149.147 101.393 149.312 101.66 149.526 101.884C149.75 102.108 150.016 102.284 150.326 102.412C150.646 102.529 150.998 102.588 151.382 102.588C151.936 102.588 152.416 102.46 152.822 102.204C153.227 101.948 153.536 101.596 153.75 101.148L154.694 101.788C154.448 102.343 154.038 102.801 153.462 103.164C152.896 103.516 152.203 103.692 151.382 103.692ZM151.302 96.108C150.95 96.108 150.624 96.172 150.326 96.3C150.027 96.428 149.766 96.604 149.542 96.828C149.328 97.052 149.158 97.3187 149.03 97.628C148.912 97.9267 148.854 98.2573 148.854 98.62V98.732H153.59V98.556C153.59 98.1933 153.531 97.8627 153.414 97.564C153.307 97.2653 153.152 97.0093 152.95 96.796C152.758 96.572 152.518 96.4013 152.23 96.284C151.952 96.1667 151.643 96.108 151.302 96.108ZM166.105 95.244H167.241L168.185 102.38H168.329L169.737 95.244H171.145L172.553 102.38H172.697L173.641 95.244H174.745L173.481 103.5H171.817L170.505 96.588H170.377L169.033 103.5H167.369L166.105 95.244ZM180.163 103.692C179.565 103.692 179.027 103.591 178.547 103.388C178.077 103.185 177.672 102.897 177.331 102.524C177 102.14 176.744 101.687 176.563 101.164C176.381 100.631 176.291 100.039 176.291 99.388C176.291 98.7267 176.381 98.1293 176.563 97.596C176.755 97.0627 177.016 96.6093 177.347 96.236C177.677 95.852 178.072 95.5587 178.531 95.356C179 95.1533 179.517 95.052 180.083 95.052C180.637 95.052 181.139 95.1533 181.587 95.356C182.045 95.5587 182.435 95.8413 182.755 96.204C183.075 96.556 183.32 96.9773 183.491 97.468C183.661 97.9587 183.747 98.4973 183.747 99.084V99.692H177.635V100.076C177.635 100.439 177.693 100.775 177.811 101.084C177.928 101.393 178.093 101.66 178.307 101.884C178.531 102.108 178.797 102.284 179.107 102.412C179.427 102.529 179.779 102.588 180.163 102.588C180.717 102.588 181.197 102.46 181.603 102.204C182.008 101.948 182.317 101.596 182.531 101.148L183.475 101.788C183.229 102.343 182.819 102.801 182.243 103.164C181.677 103.516 180.984 103.692 180.163 103.692ZM180.083 96.108C179.731 96.108 179.405 96.172 179.107 96.3C178.808 96.428 178.547 96.604 178.323 96.828C178.109 97.052 177.939 97.3187 177.811 97.628C177.693 97.9267 177.635 98.2573 177.635 98.62V98.732H182.371V98.556C182.371 98.1933 182.312 97.8627 182.195 97.564C182.088 97.2653 181.933 97.0093 181.731 96.796C181.539 96.572 181.299 96.4013 181.011 96.284C180.733 96.1667 180.424 96.108 180.083 96.108ZM186.333 91.66H187.613V96.588H187.677C188.21 95.564 189.058 95.052 190.221 95.052C191.234 95.052 192.023 95.4307 192.589 96.188C193.165 96.9453 193.453 98.0067 193.453 99.372C193.453 100.737 193.165 101.799 192.589 102.556C192.023 103.313 191.234 103.692 190.221 103.692C189.058 103.692 188.21 103.18 187.677 102.156H187.613V103.5H186.333V91.66ZM189.725 102.556C190.471 102.556 191.047 102.332 191.453 101.884C191.869 101.425 192.077 100.823 192.077 100.076V98.668C192.077 97.9213 191.869 97.324 191.453 96.876C191.047 96.4173 190.471 96.188 189.725 96.188C189.437 96.188 189.165 96.2253 188.909 96.3C188.653 96.3747 188.429 96.4867 188.237 96.636C188.045 96.7747 187.89 96.9507 187.773 97.164C187.666 97.3667 187.613 97.6067 187.613 97.884V100.86C187.613 101.137 187.666 101.383 187.773 101.596C187.89 101.799 188.045 101.975 188.237 102.124C188.429 102.263 188.653 102.369 188.909 102.444C189.165 102.519 189.437 102.556 189.725 102.556Z" fill="white" fill-opacity="0.58"/>
<path d="M556.308 143.396C556.308 142.532 556.452 141.785 556.74 141.156C557.039 140.537 557.433 140.009 557.924 139.572L558.676 140.436C558.26 140.831 557.94 141.263 557.716 141.732C557.492 142.201 557.38 142.767 557.38 143.428C557.38 144.068 557.492 144.591 557.716 144.996C557.951 145.412 558.313 145.62 558.804 145.62C559.017 145.62 559.193 145.577 559.332 145.492C559.481 145.417 559.599 145.311 559.684 145.172C559.769 145.033 559.833 144.879 559.876 144.708C559.929 144.537 559.972 144.356 560.004 144.164L560.196 142.868C560.239 142.58 560.297 142.265 560.372 141.924C560.447 141.593 560.564 141.289 560.724 141.012C560.895 140.735 561.119 140.5 561.396 140.308C561.673 140.127 562.036 140.036 562.484 140.036C562.9 140.036 563.257 140.116 563.556 140.276C563.865 140.447 564.121 140.681 564.324 140.98C564.537 141.279 564.692 141.631 564.788 142.036C564.895 142.441 564.948 142.884 564.948 143.364C564.948 144.111 564.831 144.756 564.596 145.3C564.361 145.855 564.036 146.329 563.62 146.724L562.836 145.892C562.953 145.796 563.071 145.673 563.188 145.524C563.316 145.385 563.428 145.209 563.524 144.996C563.631 144.793 563.716 144.553 563.78 144.276C563.844 143.999 563.876 143.679 563.876 143.316C563.876 142.665 563.764 142.164 563.54 141.812C563.316 141.471 562.991 141.3 562.564 141.3C562.351 141.3 562.169 141.337 562.02 141.412C561.881 141.497 561.769 141.609 561.684 141.748C561.599 141.887 561.529 142.041 561.476 142.212C561.433 142.393 561.396 142.575 561.364 142.756L561.172 144.052C561.129 144.351 561.071 144.665 560.996 144.996C560.921 145.327 560.799 145.631 560.628 145.908C560.468 146.185 560.249 146.415 559.972 146.596C559.695 146.788 559.332 146.884 558.884 146.884C558.063 146.884 557.428 146.564 556.98 145.924C556.532 145.295 556.308 144.452 556.308 143.396ZM564.756 155.566V156.846L554.692 152.75C554.457 152.654 554.255 152.547 554.084 152.43C553.903 152.312 553.759 152.174 553.652 152.014C553.535 151.854 553.449 151.662 553.396 151.438C553.332 151.214 553.3 150.947 553.3 150.638V149.422H554.388V151.342L556.66 152.27L564.756 148.942V150.254L561.3 151.646L558.164 152.878V152.942L561.3 154.174L564.756 155.566ZM556.308 162.584C556.308 161.72 556.452 160.973 556.74 160.344C557.039 159.725 557.433 159.197 557.924 158.76L558.676 159.624C558.26 160.018 557.94 160.45 557.716 160.92C557.492 161.389 557.38 161.954 557.38 162.616C557.38 163.256 557.492 163.778 557.716 164.184C557.951 164.6 558.313 164.808 558.804 164.808C559.017 164.808 559.193 164.765 559.332 164.68C559.481 164.605 559.599 164.498 559.684 164.36C559.769 164.221 559.833 164.066 559.876 163.896C559.929 163.725 559.972 163.544 560.004 163.352L560.196 162.056C560.239 161.768 560.297 161.453 560.372 161.112C560.447 160.781 560.564 160.477 560.724 160.2C560.895 159.922 561.119 159.688 561.396 159.496C561.673 159.314 562.036 159.224 562.484 159.224C562.9 159.224 563.257 159.304 563.556 159.464C563.865 159.634 564.121 159.869 564.324 160.168C564.537 160.466 564.692 160.818 564.788 161.224C564.895 161.629 564.948 162.072 564.948 162.552C564.948 163.298 564.831 163.944 564.596 164.488C564.361 165.042 564.036 165.517 563.62 165.911L562.836 165.08C562.953 164.984 563.071 164.861 563.188 164.712C563.316 164.573 563.428 164.397 563.524 164.184C563.631 163.981 563.716 163.741 563.78 163.464C563.844 163.186 563.876 162.866 563.876 162.504C563.876 161.853 563.764 161.352 563.54 161C563.316 160.658 562.991 160.488 562.564 160.488C562.351 160.488 562.169 160.525 562.02 160.6C561.881 160.685 561.769 160.797 561.684 160.936C561.599 161.074 561.529 161.229 561.476 161.4C561.433 161.581 561.396 161.762 561.364 161.944L561.172 163.24C561.129 163.538 561.071 163.853 560.996 164.184C560.921 164.514 560.799 164.818 560.628 165.096C560.468 165.373 560.249 165.602 559.972 165.784C559.695 165.976 559.332 166.072 558.884 166.072C558.063 166.072 557.428 165.752 556.98 165.112C556.532 164.482 556.308 163.64 556.308 162.584ZM556.5 172.481C556.5 171.852 556.676 171.388 557.028 171.089C557.38 170.801 557.833 170.657 558.388 170.657H563.668V167.905H564.756V169.953C564.756 170.231 564.809 170.423 564.916 170.529C565.033 170.647 565.231 170.705 565.508 170.705H567.668V171.937H564.756V175.697H563.668V171.937H557.588V175.697H556.5V172.481ZM556.308 181.819C556.308 181.222 556.409 180.683 556.612 180.203C556.815 179.734 557.103 179.328 557.476 178.987C557.86 178.656 558.313 178.4 558.836 178.219C559.369 178.038 559.961 177.947 560.612 177.947C561.273 177.947 561.871 178.038 562.404 178.219C562.937 178.411 563.391 178.672 563.764 179.003C564.148 179.334 564.441 179.728 564.644 180.187C564.847 180.656 564.948 181.174 564.948 181.739C564.948 182.294 564.847 182.795 564.644 183.243C564.441 183.702 564.159 184.091 563.796 184.411C563.444 184.731 563.023 184.976 562.532 185.147C562.041 185.318 561.503 185.403 560.916 185.403H560.308V179.291H559.924C559.561 179.291 559.225 179.35 558.916 179.467C558.607 179.584 558.34 179.75 558.116 179.963C557.892 180.187 557.716 180.454 557.588 180.763C557.471 181.083 557.412 181.435 557.412 181.819C557.412 182.374 557.54 182.854 557.796 183.259C558.052 183.664 558.404 183.974 558.852 184.187L558.212 185.131C557.657 184.886 557.199 184.475 556.836 183.899C556.484 183.334 556.308 182.64 556.308 181.819ZM563.892 181.739C563.892 181.387 563.828 181.062 563.7 180.763C563.572 180.464 563.396 180.203 563.172 179.979C562.948 179.766 562.681 179.595 562.372 179.467C562.073 179.35 561.743 179.291 561.38 179.291H561.268V184.027H561.444C561.807 184.027 562.137 183.968 562.436 183.851C562.735 183.744 562.991 183.59 563.204 183.387C563.428 183.195 563.599 182.955 563.716 182.667C563.833 182.39 563.892 182.08 563.892 181.739ZM556.5 187.333H564.756V188.517H563.796V188.581C564.116 188.709 564.388 188.89 564.612 189.125C564.836 189.359 564.948 189.706 564.948 190.165C564.948 190.645 564.825 191.002 564.58 191.237C564.345 191.471 564.036 191.615 563.652 191.669V191.717C564.025 191.866 564.335 192.079 564.58 192.357C564.825 192.634 564.948 193.018 564.948 193.509C564.948 194.181 564.713 194.629 564.244 194.853C563.775 195.087 563.103 195.205 562.228 195.205H556.5V194.021H562.02C562.724 194.021 563.209 193.946 563.476 193.797C563.753 193.658 563.892 193.397 563.892 193.013C563.892 192.671 563.78 192.394 563.556 192.181C563.343 191.967 563.012 191.861 562.564 191.861H556.5V190.677H562.02C562.724 190.677 563.209 190.602 563.476 190.453C563.753 190.314 563.892 190.058 563.892 189.685C563.892 189.343 563.78 189.061 563.556 188.837C563.343 188.623 563.012 188.517 562.564 188.517H556.5V187.333ZM556.5 214.856V213.336L558.724 212.008L561.156 210.536V210.472L558.724 208.952L556.5 207.544V206.072L562.196 209.72L567.668 206.28V207.8L565.508 209.096L563.252 210.488V210.552L565.508 211.928L567.668 213.272V214.744L562.212 211.288L556.5 214.856Z" fill="white" fill-opacity="0.58"/>
<path d="M0.5 196.5L630.5 196.5" stroke="url(#paint1_linear_50_48)" stroke-opacity="0.74"/>
<path d="M230.388 216.52L237.488 212.5V212.34L230.388 208.32V206.62L238.988 211.6V213.2L230.388 218.18V216.52ZM242.38 216.52L249.48 212.5V212.34L242.38 208.32V206.62L250.98 211.6V213.2L242.38 218.18V216.52ZM254.372 216.52L261.472 212.5V212.34L254.372 208.32V206.62L262.972 211.6V213.2L254.372 218.18V216.52ZM285.156 216.82H285.076C284.41 218.1 283.35 218.74 281.896 218.74C280.63 218.74 279.636 218.267 278.916 217.32C278.21 216.373 277.856 215.047 277.856 213.34C277.856 211.633 278.21 210.307 278.916 209.36C279.636 208.413 280.63 207.94 281.896 207.94C283.35 207.94 284.41 208.58 285.076 209.86H285.156V203.7H286.756V218.5H285.156V216.82ZM282.516 217.32C282.876 217.32 283.216 217.273 283.536 217.18C283.856 217.087 284.136 216.953 284.376 216.78C284.616 216.593 284.803 216.373 284.936 216.12C285.083 215.853 285.156 215.547 285.156 215.2V211.48C285.156 211.133 285.083 210.833 284.936 210.58C284.803 210.313 284.616 210.093 284.376 209.92C284.136 209.733 283.856 209.593 283.536 209.5C283.216 209.407 282.876 209.36 282.516 209.36C281.583 209.36 280.856 209.647 280.336 210.22C279.83 210.78 279.576 211.527 279.576 212.46V214.22C279.576 215.153 279.83 215.907 280.336 216.48C280.856 217.04 281.583 217.32 282.516 217.32ZM297.988 208.18H299.588L294.468 220.76C294.348 221.053 294.215 221.307 294.068 221.52C293.922 221.747 293.748 221.927 293.548 222.06C293.348 222.207 293.108 222.313 292.828 222.38C292.548 222.46 292.215 222.5 291.828 222.5H290.308V221.14H292.708L293.868 218.3L289.708 208.18H291.348L293.088 212.5L294.628 216.42H294.708L296.248 212.5L297.988 208.18ZM302.601 218.5V208.18H304.201V209.86H304.281C304.387 209.607 304.521 209.367 304.681 209.14C304.841 208.9 305.034 208.693 305.261 208.52C305.501 208.347 305.781 208.207 306.101 208.1C306.421 207.993 306.794 207.94 307.221 207.94C308.301 207.94 309.167 208.287 309.821 208.98C310.474 209.66 310.801 210.627 310.801 211.88V218.5H309.201V212.16C309.201 211.213 308.994 210.513 308.581 210.06C308.167 209.593 307.561 209.36 306.761 209.36C306.441 209.36 306.127 209.4 305.821 209.48C305.514 209.56 305.241 209.68 305.001 209.84C304.761 210 304.567 210.207 304.421 210.46C304.274 210.713 304.201 211.007 304.201 211.34V218.5H302.601ZM322.533 218.5C321.906 218.5 321.459 218.34 321.193 218.02C320.926 217.7 320.759 217.3 320.693 216.82H320.593C320.366 217.42 319.999 217.893 319.493 218.24C318.999 218.573 318.333 218.74 317.493 218.74C316.413 218.74 315.553 218.46 314.913 217.9C314.273 217.34 313.953 216.573 313.953 215.6C313.953 214.64 314.299 213.9 314.993 213.38C315.699 212.86 316.833 212.6 318.393 212.6H320.593V211.58C320.593 210.82 320.379 210.253 319.953 209.88C319.526 209.493 318.919 209.3 318.133 209.3C317.439 209.3 316.873 209.44 316.433 209.72C315.993 209.987 315.639 210.353 315.373 210.82L314.293 210.02C314.426 209.753 314.606 209.493 314.833 209.24C315.059 208.987 315.339 208.767 315.673 208.58C316.006 208.38 316.386 208.227 316.813 208.12C317.239 208 317.713 207.94 318.233 207.94C319.446 207.94 320.406 208.247 321.113 208.86C321.833 209.473 322.193 210.327 322.193 211.42V217.1H323.633V218.5H322.533ZM317.773 217.4C318.186 217.4 318.559 217.353 318.893 217.26C319.239 217.153 319.539 217.02 319.793 216.86C320.046 216.687 320.239 216.487 320.373 216.26C320.519 216.02 320.593 215.767 320.593 215.5V213.8H318.393C317.433 213.8 316.733 213.933 316.293 214.2C315.853 214.467 315.633 214.853 315.633 215.36V215.78C315.633 216.313 315.819 216.72 316.193 217C316.579 217.267 317.106 217.4 317.773 217.4ZM325.705 218.5V208.18H327.185V209.38H327.265C327.425 208.98 327.652 208.64 327.945 208.36C328.238 208.08 328.672 207.94 329.245 207.94C329.845 207.94 330.292 208.093 330.585 208.4C330.878 208.693 331.058 209.08 331.125 209.56H331.185C331.372 209.093 331.638 208.707 331.985 208.4C332.332 208.093 332.812 207.94 333.425 207.94C334.265 207.94 334.825 208.233 335.105 208.82C335.398 209.407 335.545 210.247 335.545 211.34V218.5H334.065V211.6C334.065 210.72 333.972 210.113 333.785 209.78C333.612 209.433 333.285 209.26 332.805 209.26C332.378 209.26 332.032 209.4 331.765 209.68C331.498 209.947 331.365 210.36 331.365 210.92V218.5H329.885V211.6C329.885 210.72 329.792 210.113 329.605 209.78C329.432 209.433 329.112 209.26 328.645 209.26C328.218 209.26 327.865 209.4 327.585 209.68C327.318 209.947 327.185 210.36 327.185 210.92V218.5H325.705ZM343.257 205.9C342.791 205.9 342.464 205.807 342.277 205.62C342.091 205.42 341.997 205.173 341.997 204.88V204.56C341.997 204.267 342.091 204.027 342.277 203.84C342.464 203.64 342.791 203.54 343.257 203.54C343.724 203.54 344.051 203.64 344.237 203.84C344.424 204.027 344.517 204.267 344.517 204.56V204.88C344.517 205.173 344.424 205.42 344.237 205.62C344.051 205.807 343.724 205.9 343.257 205.9ZM338.737 217.14H342.457V209.54H338.737V208.18H344.057V217.14H347.537V218.5H338.737V217.14ZM354.969 218.74C354.223 218.74 353.556 218.613 352.969 218.36C352.396 218.093 351.909 217.727 351.509 217.26C351.109 216.793 350.803 216.227 350.589 215.56C350.389 214.893 350.289 214.153 350.289 213.34C350.289 212.527 350.396 211.787 350.609 211.12C350.823 210.453 351.129 209.887 351.529 209.42C351.929 208.94 352.416 208.573 352.989 208.32C353.563 208.067 354.216 207.94 354.949 207.94C355.949 207.94 356.763 208.16 357.389 208.6C358.016 209.04 358.476 209.613 358.769 210.32L357.489 211C357.303 210.467 356.989 210.053 356.549 209.76C356.123 209.467 355.589 209.32 354.949 209.32C354.483 209.32 354.063 209.4 353.689 209.56C353.329 209.707 353.023 209.92 352.769 210.2C352.516 210.48 352.323 210.813 352.189 211.2C352.069 211.587 352.009 212.007 352.009 212.46V214.22C352.009 214.673 352.069 215.093 352.189 215.48C352.323 215.867 352.516 216.2 352.769 216.48C353.023 216.76 353.336 216.98 353.709 217.14C354.083 217.287 354.509 217.36 354.989 217.36C355.683 217.36 356.256 217.2 356.709 216.88C357.163 216.56 357.523 216.12 357.789 215.56L358.929 216.34C358.623 217.033 358.143 217.607 357.489 218.06C356.849 218.513 356.009 218.74 354.969 218.74ZM374.554 203.7H376.154V209.86H376.234C376.34 209.607 376.474 209.367 376.634 209.14C376.794 208.9 376.987 208.693 377.214 208.52C377.454 208.347 377.734 208.207 378.054 208.1C378.374 207.993 378.747 207.94 379.174 207.94C380.254 207.94 381.12 208.287 381.774 208.98C382.427 209.66 382.754 210.627 382.754 211.88V218.5H381.154V212.16C381.154 211.213 380.947 210.513 380.534 210.06C380.12 209.593 379.514 209.36 378.714 209.36C378.394 209.36 378.08 209.4 377.774 209.48C377.467 209.56 377.194 209.68 376.954 209.84C376.714 210 376.52 210.207 376.374 210.46C376.227 210.713 376.154 211.007 376.154 211.34V218.5H374.554V203.7ZM393.926 208.18H395.526L390.406 220.76C390.286 221.053 390.153 221.307 390.006 221.52C389.859 221.747 389.686 221.927 389.486 222.06C389.286 222.207 389.046 222.313 388.766 222.38C388.486 222.46 388.153 222.5 387.766 222.5H386.246V221.14H388.646L389.806 218.3L385.646 208.18H387.286L389.026 212.5L390.566 216.42H390.646L392.186 212.5L393.926 208.18ZM398.478 208.18H400.078V209.86H400.158C400.825 208.58 401.885 207.94 403.338 207.94C404.605 207.94 405.591 208.413 406.298 209.36C407.018 210.307 407.378 211.633 407.378 213.34C407.378 215.047 407.018 216.373 406.298 217.32C405.591 218.267 404.605 218.74 403.338 218.74C401.885 218.74 400.825 218.1 400.158 216.82H400.078V222.5H398.478V208.18ZM402.718 217.32C403.651 217.32 404.371 217.04 404.878 216.48C405.398 215.907 405.658 215.153 405.658 214.22V212.46C405.658 211.527 405.398 210.78 404.878 210.22C404.371 209.647 403.651 209.36 402.718 209.36C402.358 209.36 402.018 209.407 401.698 209.5C401.378 209.593 401.098 209.733 400.858 209.92C400.618 210.093 400.425 210.313 400.278 210.58C400.145 210.833 400.078 211.133 400.078 211.48V215.2C400.078 215.547 400.145 215.853 400.278 216.12C400.425 216.373 400.618 216.593 400.858 216.78C401.098 216.953 401.378 217.087 401.698 217.18C402.018 217.273 402.358 217.32 402.718 217.32ZM414.75 218.74C414.004 218.74 413.33 218.613 412.73 218.36C412.144 218.107 411.637 217.747 411.21 217.28C410.797 216.8 410.477 216.233 410.25 215.58C410.024 214.913 409.91 214.173 409.91 213.36C409.91 212.533 410.024 211.787 410.25 211.12C410.49 210.453 410.817 209.887 411.23 209.42C411.644 208.94 412.137 208.573 412.71 208.32C413.297 208.067 413.944 207.94 414.65 207.94C415.344 207.94 415.97 208.067 416.53 208.32C417.104 208.573 417.59 208.927 417.99 209.38C418.39 209.82 418.697 210.347 418.91 210.96C419.124 211.573 419.23 212.247 419.23 212.98V213.74H411.59V214.22C411.59 214.673 411.664 215.093 411.81 215.48C411.957 215.867 412.164 216.2 412.43 216.48C412.71 216.76 413.044 216.98 413.43 217.14C413.83 217.287 414.27 217.36 414.75 217.36C415.444 217.36 416.044 217.2 416.55 216.88C417.057 216.56 417.444 216.12 417.71 215.56L418.89 216.36C418.584 217.053 418.07 217.627 417.35 218.08C416.644 218.52 415.777 218.74 414.75 218.74ZM414.65 209.26C414.21 209.26 413.804 209.34 413.43 209.5C413.057 209.66 412.73 209.88 412.45 210.16C412.184 210.44 411.97 210.773 411.81 211.16C411.664 211.533 411.59 211.947 411.59 212.4V212.54H417.51V212.32C417.51 211.867 417.437 211.453 417.29 211.08C417.157 210.707 416.964 210.387 416.71 210.12C416.47 209.84 416.17 209.627 415.81 209.48C415.464 209.333 415.077 209.26 414.65 209.26ZM422.103 217.14H425.123V209.54H422.103V208.18H426.723V210.78H426.823C427.036 209.967 427.436 209.333 428.023 208.88C428.623 208.413 429.383 208.18 430.303 208.18H431.743V209.78H429.803C428.883 209.78 428.136 210.047 427.563 210.58C427.003 211.113 426.723 211.813 426.723 212.68V217.14H430.723V218.5H422.103V217.14ZM434.155 217.14H437.755V205.06H434.155V203.7H439.355V217.14H442.955V218.5H434.155V217.14ZM451.187 205.9C450.72 205.9 450.394 205.807 450.207 205.62C450.02 205.42 449.927 205.173 449.927 204.88V204.56C449.927 204.267 450.02 204.027 450.207 203.84C450.394 203.64 450.72 203.54 451.187 203.54C451.654 203.54 451.98 203.64 452.167 203.84C452.354 204.027 452.447 204.267 452.447 204.56V204.88C452.447 205.173 452.354 205.42 452.167 205.62C451.98 205.807 451.654 205.9 451.187 205.9ZM446.667 217.14H450.387V209.54H446.667V208.18H451.987V217.14H455.467V218.5H446.667V217.14ZM458.499 218.5V208.18H460.099V209.86H460.179C460.286 209.607 460.419 209.367 460.579 209.14C460.739 208.9 460.932 208.693 461.159 208.52C461.399 208.347 461.679 208.207 461.999 208.1C462.319 207.993 462.692 207.94 463.119 207.94C464.199 207.94 465.066 208.287 465.719 208.98C466.372 209.66 466.699 210.627 466.699 211.88V218.5H465.099V212.16C465.099 211.213 464.892 210.513 464.479 210.06C464.066 209.593 463.459 209.36 462.659 209.36C462.339 209.36 462.026 209.4 461.719 209.48C461.412 209.56 461.139 209.68 460.899 209.84C460.659 210 460.466 210.207 460.319 210.46C460.172 210.713 460.099 211.007 460.099 211.34V218.5H458.499ZM470.631 203.7H472.231V213.04H472.311L474.111 211.34L477.551 208.18H479.511L475.231 212.22L480.011 218.5H478.031L474.011 213.14L472.231 214.76V218.5H470.631V203.7ZM495.796 204.54V212.92C495.796 213.6 495.816 214.207 495.856 214.74C495.896 215.273 496.002 215.733 496.176 216.12C496.349 216.493 496.616 216.78 496.976 216.98C497.349 217.18 497.862 217.28 498.516 217.28C499.169 217.28 499.676 217.18 500.036 216.98C500.409 216.78 500.682 216.493 500.856 216.12C501.029 215.733 501.136 215.273 501.176 214.74C501.216 214.207 501.236 213.6 501.236 212.92V204.54H502.916V212.52C502.916 213.56 502.862 214.467 502.756 215.24C502.662 216.013 502.456 216.66 502.136 217.18C501.829 217.7 501.382 218.093 500.796 218.36C500.222 218.613 499.462 218.74 498.516 218.74C497.569 218.74 496.802 218.613 496.216 218.36C495.642 218.093 495.196 217.7 494.876 217.18C494.569 216.66 494.362 216.013 494.256 215.24C494.162 214.467 494.116 213.56 494.116 212.52V204.54H495.796ZM506.188 218.5V217.16H509.668V205.88H506.188V204.54H514.828V205.88H511.348V217.16H514.828V218.5H506.188Z" fill="white" fill-opacity="0.58"/>
<path d="M0.5 226.5L630.5 226.5" stroke="url(#paint2_linear_50_48)" stroke-opacity="0.74"/>
<path d="M0.5 121.5L630.5 121.5" stroke="url(#paint3_linear_50_48)" stroke-opacity="0.74"/>
<path d="M0.5 240.5L630.5 240.5" stroke="url(#paint4_linear_50_48)" stroke-opacity="0.74" stroke-dasharray="2 2"/>
<path d="M0.5 104.5L630.5 104.5" stroke="url(#paint5_linear_50_48)" stroke-opacity="0.74" stroke-dasharray="2 2"/>
<path d="M0.5 300.5H630.5" stroke="white" stroke-opacity="0.74" stroke-dasharray="2 2"/>
<path d="M0.5 315.5L630.5 315.5" stroke="white" stroke-opacity="0.74" stroke-dasharray="2 2"/>
<g filter="url(#filter0_d_50_48)">
<path d="M109.5 181H112.119L109.5 179.206V181ZM158.5 161.5H136.105L162.788 178.981L165.5 180.758V211H101.5C94.965 211 89.4408 208.933 85.6182 204.719C81.8884 200.606 80.5 195.241 80.5 190V170H96.0557L86.1104 163.189C83.9029 161.678 81.9608 158.89 82.5605 155.405C83.0926 152.315 85.7622 149.5 89.5 149.5H104V130.5H139.118L140.767 131.829L156.267 144.329L158.5 146.131V161.5Z" fill="white" stroke="white" stroke-width="12"/>
<path d="M117.5 181H120.119L117.5 179.206V181ZM166.5 161.5H144.105L170.788 178.981L173.5 180.758V211H109.5C102.965 211 97.4408 208.933 93.6182 204.719C89.8884 200.606 88.5 195.241 88.5 190V170H104.056L94.1104 163.189C91.9029 161.678 89.9608 158.89 90.5605 155.405C91.0926 152.315 93.7622 149.5 97.5 149.5H112V130.5H147.118L148.767 131.829L164.267 144.329L166.5 146.131V161.5Z" fill="white" stroke="white" stroke-width="12"/>
<path d="M124.5 181H127.119L124.5 179.206V181ZM173.5 161.5H151.105L177.788 178.981L180.5 180.758V211H116.5C109.965 211 104.441 208.933 100.618 204.719C96.8884 200.606 95.5 195.241 95.5 190V170H111.056L101.11 163.189C98.9029 161.678 96.9608 158.89 97.5605 155.405C98.0926 152.315 100.762 149.5 104.5 149.5H119V130.5H154.118L155.767 131.829L171.267 144.329L173.5 146.131V161.5Z" fill="white" stroke="white" stroke-width="12"/>
<path d="M107.5 183H118.579L107.5 175.412V183ZM156.5 159.5H130.5C130.482 159.5 130.464 159.501 130.446 159.501C130.471 159.545 130.498 159.593 130.529 159.643C130.848 160.147 131.495 160.87 132.692 161.654L161.692 180.654L163.5 181.839V209H101.5C95.3933 209 90.4605 207.081 87.0996 203.375C83.8006 199.738 82.5 194.911 82.5 190V172H102.516L87.2402 161.539C85.479 160.333 84.1008 158.247 84.5312 155.745C84.9167 153.506 86.8414 151.5 89.5 151.5H106V132.5H138.412L139.511 133.387L155.011 145.887L156.5 147.087V159.5Z" fill="white" stroke="black" stroke-width="8"/>
<path d="M115.5 183H126.579L115.5 175.412V183ZM164.5 159.5H138.5C138.482 159.5 138.464 159.501 138.446 159.501C138.471 159.545 138.498 159.593 138.529 159.643C138.848 160.147 139.495 160.87 140.692 161.654L169.692 180.654L171.5 181.839V209H109.5C103.393 209 98.4605 207.081 95.0996 203.375C91.8006 199.738 90.5 194.911 90.5 190V172H110.516L95.2402 161.539C93.479 160.333 92.1008 158.247 92.5312 155.745C92.9167 153.506 94.8414 151.5 97.5 151.5H114V132.5H146.412L147.511 133.387L163.011 145.887L164.5 147.087V159.5Z" fill="white" stroke="black" stroke-width="8"/>
<path d="M122.5 183H133.579L122.5 175.412V183ZM171.5 159.5H145.5C145.482 159.5 145.464 159.501 145.446 159.501C145.471 159.545 145.498 159.593 145.529 159.643C145.848 160.147 146.495 160.87 147.692 161.654L176.692 180.654L178.5 181.839V209H116.5C110.393 209 105.461 207.081 102.1 203.375C98.8006 199.738 97.5 194.911 97.5 190V172H117.516L102.24 161.539C100.479 160.333 99.1008 158.247 99.5312 155.745C99.9167 153.506 101.841 151.5 104.5 151.5H121V132.5H153.412L154.511 133.387L170.011 145.887L171.5 147.087V159.5Z" fill="white" stroke="black" stroke-width="8"/>
<mask id="path-86-outside-1_50_48" maskUnits="userSpaceOnUse" x="169.5" y="107.5" width="23" height="27" fill="black">
<rect fill="white" x="169.5" y="107.5" width="23" height="27"/>
<path d="M181.357 119.372C182.285 119.372 182.957 119.196 183.373 118.844C183.805 118.492 184.021 118.06 184.021 117.548V117.38C184.021 116.772 183.813 116.292 183.397 115.94C182.997 115.572 182.421 115.388 181.669 115.388C180.981 115.388 180.333 115.564 179.725 115.916C179.133 116.252 178.629 116.74 178.213 117.38L175.933 115.268C176.253 114.852 176.605 114.476 176.989 114.14C177.373 113.788 177.797 113.492 178.261 113.252C178.725 112.996 179.245 112.804 179.821 112.676C180.413 112.532 181.077 112.46 181.813 112.46C182.725 112.46 183.549 112.564 184.285 112.772C185.021 112.98 185.645 113.284 186.157 113.684C186.685 114.068 187.093 114.532 187.381 115.076C187.669 115.62 187.813 116.228 187.813 116.9C187.813 117.428 187.725 117.908 187.549 118.34C187.373 118.772 187.133 119.148 186.829 119.468C186.541 119.788 186.197 120.052 185.797 120.26C185.413 120.452 184.997 120.588 184.549 120.668V120.812C185.573 120.988 186.421 121.42 187.093 122.108C187.781 122.78 188.125 123.692 188.125 124.844C188.125 125.596 187.965 126.276 187.645 126.884C187.341 127.492 186.901 128.012 186.325 128.444C185.765 128.876 185.077 129.212 184.261 129.452C183.461 129.676 182.565 129.788 181.573 129.788C180.725 129.788 179.973 129.7 179.317 129.524C178.677 129.348 178.109 129.116 177.613 128.828C177.117 128.524 176.685 128.18 176.317 127.796C175.965 127.396 175.653 126.988 175.381 126.572L178.045 124.508C178.413 125.196 178.869 125.764 179.413 126.212C179.973 126.644 180.717 126.86 181.645 126.86C182.509 126.86 183.173 126.66 183.637 126.26C184.101 125.86 184.333 125.308 184.333 124.604V124.436C184.333 123.748 184.069 123.236 183.541 122.9C183.013 122.548 182.277 122.372 181.333 122.372H179.773V119.372H181.357Z"/>
</mask>
<path d="M181.357 119.372C182.285 119.372 182.957 119.196 183.373 118.844C183.805 118.492 184.021 118.06 184.021 117.548V117.38C184.021 116.772 183.813 116.292 183.397 115.94C182.997 115.572 182.421 115.388 181.669 115.388C180.981 115.388 180.333 115.564 179.725 115.916C179.133 116.252 178.629 116.74 178.213 117.38L175.933 115.268C176.253 114.852 176.605 114.476 176.989 114.14C177.373 113.788 177.797 113.492 178.261 113.252C178.725 112.996 179.245 112.804 179.821 112.676C180.413 112.532 181.077 112.46 181.813 112.46C182.725 112.46 183.549 112.564 184.285 112.772C185.021 112.98 185.645 113.284 186.157 113.684C186.685 114.068 187.093 114.532 187.381 115.076C187.669 115.62 187.813 116.228 187.813 116.9C187.813 117.428 187.725 117.908 187.549 118.34C187.373 118.772 187.133 119.148 186.829 119.468C186.541 119.788 186.197 120.052 185.797 120.26C185.413 120.452 184.997 120.588 184.549 120.668V120.812C185.573 120.988 186.421 121.42 187.093 122.108C187.781 122.78 188.125 123.692 188.125 124.844C188.125 125.596 187.965 126.276 187.645 126.884C187.341 127.492 186.901 128.012 186.325 128.444C185.765 128.876 185.077 129.212 184.261 129.452C183.461 129.676 182.565 129.788 181.573 129.788C180.725 129.788 179.973 129.7 179.317 129.524C178.677 129.348 178.109 129.116 177.613 128.828C177.117 128.524 176.685 128.18 176.317 127.796C175.965 127.396 175.653 126.988 175.381 126.572L178.045 124.508C178.413 125.196 178.869 125.764 179.413 126.212C179.973 126.644 180.717 126.86 181.645 126.86C182.509 126.86 183.173 126.66 183.637 126.26C184.101 125.86 184.333 125.308 184.333 124.604V124.436C184.333 123.748 184.069 123.236 183.541 122.9C183.013 122.548 182.277 122.372 181.333 122.372H179.773V119.372H181.357Z" fill="#222222"/>
<path d="M183.373 118.844L180.846 115.743L180.817 115.766L180.789 115.79L183.373 118.844ZM183.397 115.94L180.688 118.884L180.75 118.94L180.813 118.994L183.397 115.94ZM179.725 115.916L181.699 119.395L181.714 119.386L181.729 119.378L179.725 115.916ZM178.213 117.38L175.494 120.314L178.978 123.542L181.566 119.56L178.213 117.38ZM175.933 115.268L172.762 112.829L170.537 115.722L173.214 118.202L175.933 115.268ZM176.989 114.14L179.623 117.15L179.658 117.12L179.692 117.089L176.989 114.14ZM178.261 113.252L180.098 116.805L180.146 116.78L180.193 116.754L178.261 113.252ZM179.821 112.676L180.688 116.581L180.727 116.572L180.766 116.563L179.821 112.676ZM186.157 113.684L183.694 116.836L183.748 116.878L183.804 116.919L186.157 113.684ZM187.381 115.076L183.846 116.948L183.846 116.948L187.381 115.076ZM187.549 118.34L183.844 116.831L183.844 116.831L187.549 118.34ZM186.829 119.468L183.929 116.713L183.892 116.752L183.856 116.792L186.829 119.468ZM185.797 120.26L187.586 123.838L187.614 123.824L187.642 123.809L185.797 120.26ZM184.549 120.668L183.846 116.73L180.549 117.319V120.668H184.549ZM184.549 120.812H180.549V124.183L183.871 124.754L184.549 120.812ZM187.093 122.108L184.231 124.903L184.264 124.937L184.298 124.97L187.093 122.108ZM187.645 126.884L184.105 125.021L184.086 125.058L184.067 125.095L187.645 126.884ZM186.325 128.444L183.925 125.244L183.903 125.26L183.881 125.277L186.325 128.444ZM184.261 129.452L185.339 133.304L185.364 133.297L185.389 133.289L184.261 129.452ZM179.317 129.524L178.256 133.381L178.268 133.384L178.28 133.387L179.317 129.524ZM177.613 128.828L175.522 132.238L175.563 132.263L175.604 132.287L177.613 128.828ZM176.317 127.796L173.314 130.439L173.37 130.502L173.429 130.564L176.317 127.796ZM175.381 126.572L172.931 123.41L170.012 125.671L172.033 128.761L175.381 126.572ZM178.045 124.508L181.572 122.621L179.338 118.446L175.595 121.346L178.045 124.508ZM179.413 126.212L176.87 129.3L176.919 129.34L176.969 129.379L179.413 126.212ZM183.637 126.26L186.248 129.29L186.248 129.29L183.637 126.26ZM183.541 122.9L181.322 126.228L181.357 126.252L181.393 126.275L183.541 122.9ZM179.773 122.372H175.773V126.372H179.773V122.372ZM179.773 119.372V115.372H175.773V119.372H179.773ZM181.357 119.372V123.372C182.622 123.372 184.46 123.163 185.956 121.898L183.373 118.844L180.789 115.79C181.144 115.49 181.455 115.394 181.543 115.371C181.627 115.348 181.585 115.372 181.357 115.372V119.372ZM183.373 118.844L185.899 121.945C187.17 120.91 188.021 119.379 188.021 117.548H184.021H180.021C180.021 117.221 180.095 116.84 180.281 116.467C180.463 116.104 180.69 115.87 180.846 115.743L183.373 118.844ZM184.021 117.548H188.021V117.38H184.021H180.021V117.548H184.021ZM184.021 117.38H188.021C188.021 115.749 187.405 114.092 185.98 112.886L183.397 115.94L180.813 118.994C180.571 118.789 180.346 118.503 180.194 118.154C180.049 117.818 180.021 117.535 180.021 117.38H184.021ZM183.397 115.94L186.105 112.996C184.724 111.726 183.037 111.388 181.669 111.388V115.388V119.388C181.805 119.388 181.269 119.418 180.688 118.884L183.397 115.94ZM181.669 115.388V111.388C180.261 111.388 178.924 111.757 177.721 112.454L179.725 115.916L181.729 119.378C181.739 119.372 181.742 119.371 181.738 119.372C181.734 119.374 181.726 119.377 181.715 119.38C181.704 119.383 181.693 119.385 181.683 119.387C181.673 119.388 181.668 119.388 181.669 119.388V115.388ZM179.725 115.916L177.75 112.437C176.536 113.126 175.581 114.089 174.859 115.2L178.213 117.38L181.566 119.56C181.625 119.47 181.667 119.425 181.685 119.408C181.702 119.391 181.706 119.391 181.699 119.395L179.725 115.916ZM178.213 117.38L180.931 114.446L178.651 112.334L175.933 115.268L173.214 118.202L175.494 120.314L178.213 117.38ZM175.933 115.268L179.103 117.707C179.268 117.492 179.441 117.309 179.623 117.15L176.989 114.14L174.355 111.13C173.768 111.643 173.237 112.212 172.762 112.829L175.933 115.268ZM176.989 114.14L179.692 117.089C179.814 116.976 179.947 116.883 180.098 116.805L178.261 113.252L176.423 109.699C175.646 110.101 174.931 110.6 174.286 111.191L176.989 114.14ZM178.261 113.252L180.193 116.754C180.288 116.702 180.443 116.635 180.688 116.581L179.821 112.676L178.953 108.771C178.046 108.973 177.162 109.29 176.328 109.75L178.261 113.252ZM179.821 112.676L180.766 116.563C180.992 116.508 181.332 116.46 181.813 116.46V112.46V108.46C180.822 108.46 179.833 108.556 178.875 108.789L179.821 112.676ZM181.813 112.46V116.46C182.425 116.46 182.875 116.53 183.197 116.621L184.285 112.772L185.373 108.923C184.222 108.598 183.024 108.46 181.813 108.46V112.46ZM184.285 112.772L183.197 116.621C183.521 116.713 183.656 116.807 183.694 116.836L186.157 113.684L188.619 110.532C187.633 109.761 186.521 109.247 185.373 108.923L184.285 112.772ZM186.157 113.684L183.804 116.919C183.824 116.934 183.837 116.945 183.845 116.951C183.848 116.955 183.851 116.957 183.852 116.959C183.854 116.96 183.855 116.961 183.855 116.961C183.855 116.961 183.854 116.961 183.854 116.96C183.853 116.959 183.852 116.957 183.851 116.956C183.848 116.952 183.846 116.949 183.846 116.948L187.381 115.076L190.916 113.204C190.325 112.089 189.5 111.169 188.509 110.449L186.157 113.684ZM187.381 115.076L183.846 116.948C183.838 116.933 183.83 116.917 183.824 116.9C183.818 116.884 183.815 116.871 183.812 116.862C183.808 116.842 183.813 116.851 183.813 116.9H187.813H191.813C191.813 115.637 191.536 114.377 190.916 113.204L187.381 115.076ZM187.813 116.9H183.813C183.813 116.942 183.809 116.951 183.812 116.935C183.815 116.917 183.824 116.88 183.844 116.831L187.549 118.34L191.253 119.849C191.648 118.879 191.813 117.878 191.813 116.9H187.813ZM187.549 118.34L183.844 116.831C183.843 116.833 183.849 116.819 183.865 116.794C183.881 116.769 183.903 116.74 183.929 116.713L186.829 119.468L189.729 122.223C190.395 121.521 190.9 120.716 191.253 119.849L187.549 118.34ZM186.829 119.468L183.856 116.792C183.876 116.769 183.899 116.749 183.919 116.733C183.94 116.717 183.952 116.711 183.951 116.711L185.797 120.26L187.642 123.809C188.447 123.39 189.178 122.837 189.802 122.144L186.829 119.468ZM185.797 120.26L184.008 116.682C183.987 116.693 183.939 116.714 183.846 116.73L184.549 120.668L185.252 124.606C186.054 124.462 186.839 124.211 187.586 123.838L185.797 120.26ZM184.549 120.668H180.549V120.812H184.549H188.549V120.668H184.549ZM184.549 120.812L183.871 124.754C184.135 124.8 184.196 124.867 184.231 124.903L187.093 122.108L189.954 119.313C188.645 117.973 187.01 117.176 185.226 116.87L184.549 120.812ZM187.093 122.108L184.298 124.97C184.264 124.936 184.227 124.892 184.193 124.841C184.159 124.789 184.137 124.742 184.124 124.708C184.098 124.639 184.125 124.664 184.125 124.844H188.125H192.125C192.125 122.844 191.496 120.817 189.888 119.246L187.093 122.108ZM188.125 124.844H184.125C184.125 124.935 184.115 124.984 184.111 125.002C184.109 125.011 184.107 125.016 184.107 125.018C184.106 125.019 184.106 125.02 184.105 125.021L187.645 126.884L191.184 128.747C191.835 127.512 192.125 126.183 192.125 124.844H188.125ZM187.645 126.884L184.067 125.095C184.057 125.115 184.034 125.162 183.925 125.244L186.325 128.444L188.725 131.644C189.767 130.862 190.624 129.869 191.222 128.673L187.645 126.884ZM186.325 128.444L183.881 125.277C183.785 125.351 183.566 125.487 183.132 125.615L184.261 129.452L185.389 133.289C186.587 132.937 187.744 132.401 188.768 131.611L186.325 128.444ZM184.261 129.452L183.182 125.6C182.793 125.709 182.268 125.788 181.573 125.788V129.788V133.788C182.861 133.788 184.128 133.643 185.339 133.304L184.261 129.452ZM181.573 129.788V125.788C180.992 125.788 180.6 125.727 180.353 125.661L179.317 129.524L178.28 133.387C179.346 133.673 180.457 133.788 181.573 133.788V129.788ZM179.317 129.524L180.377 125.667C180.018 125.568 179.777 125.459 179.621 125.369L177.613 128.828L175.604 132.287C176.44 132.773 177.335 133.128 178.256 133.381L179.317 129.524ZM177.613 128.828L179.703 125.418C179.472 125.276 179.314 125.143 179.205 125.028L176.317 127.796L173.429 130.564C174.055 131.217 174.761 131.772 175.522 132.238L177.613 128.828ZM176.317 127.796L179.32 125.153C179.084 124.886 178.889 124.629 178.729 124.383L175.381 126.572L172.033 128.761C172.416 129.347 172.845 129.906 173.314 130.439L176.317 127.796ZM175.381 126.572L177.831 129.734L180.495 127.67L178.045 124.508L175.595 121.346L172.931 123.41L175.381 126.572ZM178.045 124.508L174.518 126.395C175.106 127.494 175.881 128.486 176.87 129.3L179.413 126.212L181.956 123.124C181.856 123.042 181.72 122.898 181.572 122.621L178.045 124.508ZM179.413 126.212L176.969 129.379C178.421 130.499 180.109 130.86 181.645 130.86V126.86V122.86C181.486 122.86 181.452 122.841 181.506 122.857C181.569 122.875 181.703 122.927 181.856 123.045L179.413 126.212ZM181.645 126.86V130.86C183.078 130.86 184.809 130.53 186.248 129.29L183.637 126.26L181.025 123.23C181.536 122.79 181.94 122.86 181.645 122.86V126.86ZM183.637 126.26L186.248 129.29C187.73 128.012 188.333 126.279 188.333 124.604H184.333H180.333C180.333 124.516 180.348 124.289 180.471 123.996C180.6 123.689 180.8 123.424 181.025 123.23L183.637 126.26ZM184.333 124.604H188.333V124.436H184.333H180.333V124.604H184.333ZM184.333 124.436H188.333C188.333 122.542 187.5 120.678 185.688 119.525L183.541 122.9L181.393 126.275C181.113 126.096 180.8 125.796 180.579 125.369C180.368 124.958 180.333 124.607 180.333 124.436H184.333ZM183.541 122.9L185.759 119.572C184.327 118.617 182.704 118.372 181.333 118.372V122.372V126.372C181.445 126.372 181.528 126.377 181.585 126.383C181.642 126.389 181.666 126.395 181.662 126.394C181.657 126.393 181.518 126.359 181.322 126.228L183.541 122.9ZM181.333 122.372V118.372H179.773V122.372V126.372H181.333V122.372ZM179.773 122.372H183.773V119.372H179.773H175.773V122.372H179.773ZM179.773 119.372V123.372H181.357V119.372V115.372H179.773V119.372Z" fill="white" mask="url(#path-86-outside-1_50_48)"/>
</g>
<path d="M555.5 0.5V330.5" stroke="url(#paint6_linear_50_48)" stroke-opacity="0.74"/>
<path d="M210.5 8.5V330.5" stroke="url(#paint7_linear_50_48)" stroke-opacity="0.74"/>
<path d="M45.5 8.5V330.5" stroke="url(#paint8_linear_50_48)" stroke-opacity="0.74"/>
<path d="M30.5 120.5V98C30.5 87 42 75.5 53 75.5H75.5" stroke="white" stroke-opacity="0.71" stroke-width="10" stroke-linejoin="round"/>
<path d="M75.5 255.5H53C42 255.5 30.5 244 30.5 233L30.5 210.5" stroke="white" stroke-opacity="0.71" stroke-width="10" stroke-linejoin="round"/>
<path d="M601.5 210.5V233C601.5 244 590 255.5 579 255.5H556.5" stroke="white" stroke-opacity="0.71" stroke-width="10" stroke-linejoin="round"/>
<path d="M556.5 75.5L579 75.5C590 75.5 601.5 87 601.5 98V120.5" stroke="white" stroke-opacity="0.71" stroke-width="10" stroke-linejoin="round"/>
<defs>
<filter id="filter0_d_50_48" x="70.5" y="108.46" width="125.625" height="116.54" filterUnits="userSpaceOnUse" color-interpolation-filters="sRGB">
<feFlood flood-opacity="0" result="BackgroundImageFix"/>
<feColorMatrix in="SourceAlpha" type="matrix" values="0 0 0 0 0 0 0 0 0 0 0 0 0 0 0 0 0 0 127 0" result="hardAlpha"/>
<feOffset dy="4"/>
<feGaussianBlur stdDeviation="2"/>
<feComposite in2="hardAlpha" operator="out"/>
<feColorMatrix type="matrix" values="0 0 0 0 0 0 0 0 0 0 0 0 0 0 0 0 0 0 0.25 0"/>
<feBlend mode="normal" in2="BackgroundImageFix" result="effect1_dropShadow_50_48"/>
<feBlend mode="normal" in="SourceGraphic" in2="effect1_dropShadow_50_48" result="shape"/>
</filter>
<linearGradient id="paint0_linear_50_48" x1="315.5" y1="0.5" x2="315.5" y2="330.5" gradientUnits="userSpaceOnUse">
<stop stop-color="#1AB6EF"/>
<stop offset="1" stop-color="#1764E1"/>
</linearGradient>
<linearGradient id="paint1_linear_50_48" x1="0.5" y1="196" x2="630.5" y2="196" gradientUnits="userSpaceOnUse">
<stop stop-color="white" stop-opacity="0"/>
<stop offset="0.5" stop-color="white"/>
<stop offset="1" stop-color="white" stop-opacity="0"/>
</linearGradient>
<linearGradient id="paint2_linear_50_48" x1="0.5" y1="226" x2="630.5" y2="226" gradientUnits="userSpaceOnUse">
<stop stop-color="white" stop-opacity="0"/>
<stop offset="0.5" stop-color="white"/>
<stop offset="1" stop-color="white" stop-opacity="0"/>
</linearGradient>
<linearGradient id="paint3_linear_50_48" x1="0.5" y1="121" x2="630.5" y2="121" gradientUnits="userSpaceOnUse">
<stop stop-color="white" stop-opacity="0"/>
<stop offset="0.5" stop-color="white"/>
<stop offset="1" stop-color="white" stop-opacity="0"/>
</linearGradient>
<linearGradient id="paint4_linear_50_48" x1="0.5" y1="240" x2="630.5" y2="240" gradientUnits="userSpaceOnUse">
<stop stop-color="white" stop-opacity="0"/>
<stop offset="0.5" stop-color="white"/>
<stop offset="1" stop-color="white" stop-opacity="0"/>
</linearGradient>
<linearGradient id="paint5_linear_50_48" x1="0.5" y1="104" x2="630.5" y2="104" gradientUnits="userSpaceOnUse">
<stop stop-color="white" stop-opacity="0"/>
<stop offset="0.5" stop-color="white"/>
<stop offset="1" stop-color="white" stop-opacity="0"/>
</linearGradient>
<linearGradient id="paint6_linear_50_48" x1="556" y1="0.5" x2="556" y2="330.5" gradientUnits="userSpaceOnUse">
<stop stop-color="white" stop-opacity="0"/>
<stop offset="0.5" stop-color="white"/>
<stop offset="1" stop-color="white" stop-opacity="0"/>
</linearGradient>
<linearGradient id="paint7_linear_50_48" x1="211" y1="8.5" x2="211" y2="330.5" gradientUnits="userSpaceOnUse">
<stop stop-color="white" stop-opacity="0"/>
<stop offset="0.5" stop-color="white"/>
<stop offset="1" stop-color="white" stop-opacity="0"/>
</linearGradient>
<linearGradient id="paint8_linear_50_48" x1="46" y1="8.5" x2="46" y2="330.5" gradientUnits="userSpaceOnUse">
<stop stop-color="white" stop-opacity="0"/>
<stop offset="0.5" stop-color="white"/>
<stop offset="1" stop-color="white" stop-opacity="0"/>
</linearGradient>
</defs>
</svg>
